#!OML:ASF E:/inclinewalkrobotboard/Project1/Captureday1/Session1/subject1.ASF
:FULLY-SPECIFIED
:DEGREES
388
root 0 0 0 -1.3312701485731602 -1.2134653103144692 -4.01341714626949
lowerback 20.023215072788396 2.9342834007051626 -0.10707891742350228
upperback 2.082083234277482 3.9583176016437776 -0.41894117887623006
thorax -8.955139633996989 1.9112285931850526 -1.0448272546383652
lowerneck -8.33255988095709 -6.001722122223656 -1.296947215810837
upperneck -0.5624816980850245 -8.65979036736515 5.6374999297692305
head 1.5199407451717208 -3.967067349431634 1.4380563433167834
rclavicle -8.51649975479809E-16 3.954656732180916E-16
rhumerus 35.65541534415183 -6.420050983345247 -28.994205369501493
rradius 147.80171213404276
rwrist -24.7655396269623
rhand -19.057524431713084 -31.768821606702197
rfingers 7.125019999999958
rthumb 7.2679450102136345 -61.55927629885471
lclavicle -2.2248775419910838E-15 8.287251104141364E-16
lhumerus -46.86695632914343 -6.66283334925247 80.5258209066284
lradius 62.17322325009113
lwrist 10.765882197424563
lhand -14.35311215973125 -20.35611531229609
lfingers 7.125019999999876
lthumb 11.719935150142373 9.301844951650587
rfemur -12.292271651012836 7.702258639406565 34.04317356133494
rtibia 34.11167202754618
rfoot -17.170658251824975 -7.707422927025205
rtoes 9.598853227354521
lfemur -21.531936828983522 3.492643769926818 -13.744231866682107
ltibia 64.74774323082016
lfoot -1.3376375527985545 -7.9724603977000035
ltoes -6.336246314515975
389
root 0 0 0 -1.3927600860969387 -1.3075066684401455 -4.009920983066954
lowerback 19.82563621406213 2.994490098876743 0.03868446435169903
upperback 2.1516410237197046 4.042410955279535 -0.48647607650421376
thorax -8.77358627301799 1.9495609964100242 -1.2030132242896954
lowerneck -8.508256720597213 -5.996825431309683 -1.4322800030233345
upperneck -0.7975387088767523 -8.663297154289062 5.800230984447198
head 1.4340653735138824 -3.965795298394757 1.512315360488512
rclavicle -8.782042567825695E-16 4.1518691269127295E-16
rhumerus 36.226630220850424 -5.097651918422944 -28.854873555283966
rradius 149.1986243147981
rwrist -25.01473977043494
rhand -19.06977377190484 -31.510921858171216
rfingers 7.125019999999955
rthumb 7.256954439978667 -61.303356528615666
lclavicle -2.144736103541745E-15 7.951601276590883E-16
lhumerus -47.07589484577578 -6.509953946927159 80.27944574631604
lradius 62.137923292788244
lwrist 10.790922370040203
lhand -14.408702748021069 -20.195025653495556
lfingers 7.125019999999873
lthumb 11.667964398802678 9.477594951977197
rfemur -6.973743523677202 8.631556605995417 35.11125300621192
rtibia 29.266887320514584
rfoot -19.553672098301337 -8.011371260210192
rtoes 8.047449208041156
lfemur -22.629458712146615 3.405111332892885 -13.798951012051896
ltibia 63.19802519593878
lfoot -1.9098339802957902 -7.257789503617087
ltoes -5.125703028347431
390
root 0 0 0 -1.4328259792768718 -1.3881480497132932 -4.008097439172339
lowerback 19.717898699698416 3.023874465137274 0.11226226008710449
upperback 2.1982546199710145 4.083885975658111 -0.5133497880809039
thorax -8.666114579556748 1.9684986861528526 -1.2749491351567894
lowerneck -8.579967082716038 -5.985480984566533 -1.4923926604841624
upperneck -0.8707565213920372 -8.649544586313535 5.8688607692327075
head 1.4038967422541493 -3.9585293384502993 1.5448621950167452
rclavicle -9.308343914957471E-16 4.512620529778105E-16
rhumerus 36.503710350603704 -4.287513706179474 -28.887136335855402
rradius 150.01808677166827
rwrist -25.00262950234515
rhand -19.128839012363844 -31.285322773657512
rfingers 7.125019999999953
rthumb 7.2003211586291975 -61.08343176672711
lclavicle -1.978912544265699E-15 7.576296976736771E-16
lhumerus -47.24091429208579 -6.361572854292959 80.06238910663753
lradius 62.08668932014079
lwrist 10.801566983524333
lhand -14.463621320841302 -20.063539418044467
lfingers 7.1250199999998705
lthumb 11.616669489550526 9.629638929003544
rfemur -3.040025238445226 8.933488125260048 35.58602021445306
rtibia 27.192605554108976
rfoot -20.930924297514846 -7.972858741976395
rtoes 6.978427408825556
lfemur -23.685502612209646 3.167634155278297 -14.041118707439356
ltibia 60.7252958768828
lfoot -2.3253008215016138 -6.560834599833524
ltoes -3.2683090964050834
391
root 0 0 0 -1.4565284114388368 -1.4518896505846572 -4.004941809212886
lowerback 19.7033714078712 3.0348899283028077 0.14371184002613635
upperback 2.225748935942099 4.099714050153839 -0.5240877534475852
thorax -8.631009363449728 1.9752764744596663 -1.305244807465519
lowerneck -8.605907231469875 -5.972318979582868 -1.5045410051089743
upperneck -0.9491269020451494 -8.628244732370886 5.87634416839945
head 1.377152876218024 -3.9497001917257917 1.5510312674464628
rclavicle -9.446633892793947E-16 5.733379907879161E-16
rhumerus 36.615709417101115 -3.9339733773799734 -28.938142616871396
rradius 150.46129178163233
rwrist -24.956583624822837
rhand -19.208418668551154 -31.171758798148666
rfingers 7.125019999999952
rthumb 7.123969923281067 -60.9758686686653
lclavicle -1.8282340331653397E-15 8.14074576591219E-16
lhumerus -47.33165866469817 -6.264567046248506 79.92830061490857
lradius 62.046416191245
lwrist 10.800675749214088
lhand -14.499562186410744 -19.99326079211982
lfingers 7.12501999999987
lthumb 11.583509948735554 9.714691532148189
rfemur -0.9804623547268538 8.995278563455633 35.74495596824782
rtibia 26.510653854109407
rfoot -21.541126452180443 -7.907867675522662
rtoes 6.298097048599151
lfemur -24.79691306591381 2.817727469265203 -14.514106485130007
ltibia 57.373159732822906
lfoot -2.6971771925915604 -5.823019861432969
ltoes -0.6235906140979282
392
root 0 0 0 -1.4709892061686856 -1.5009397027568687 -3.998741934496579
lowerback 19.753893404448462 3.035025023268869 0.15257547800406968
upperback 2.247152444741349 4.100120165716621 -0.5285278476361341
thorax -8.638610112808765 1.9746486409708242 -1.3155937846606627
lowerneck -8.61344689163827 -5.95987405154732 -1.492939926404218
upperneck -1.0627265220863773 -8.604738791776875 5.85004322117835
head 1.3418811337040504 -3.9413164987227916 1.5431181365406572
rclavicle -8.89261455045844E-16 7.490277164589642E-16
rhumerus 36.612053700490954 -3.9133014115917564 -29.029718803846805
rradius 150.6172515032504
rwrist -24.792828622153365
rhand -19.311970026042182 -31.113457167242842
rfingers 7.125019999999953
rthumb 7.025029639121118 -60.92394445239184
lclavicle -1.7152704451269812E-15 9.35410912549478E-16
lhumerus -47.372963952455144 -6.207225858842704 79.84351923668665
lradius 62.018973486801634
lwrist 10.806339982807376
lhand -14.529436007796475 -19.937808689281432
lfingers 7.125019999999868
lthumb 11.5552401231673 9.780980338618399
rfemur -0.1999843416226752 8.963563706696686 35.74509353265915
rtibia 26.53923149310442
rfoot -21.681233554477316 -7.892147655623667
rtoes 5.7993219463659464
lfemur -25.889646179928764 2.359989970762053 -15.27428046616453
ltibia 53.163620274511764
lfoot -3.019700785480019 -5.075839250625459
ltoes 2.883864224925105
393
root 0 0 0 -1.4792194519399209 -1.5379040241820798 -3.9903369933435546
lowerback 19.842387571048278 3.028280858297823 0.1464718365073594
upperback 2.265431136138232 4.090654696425058 -0.5282962671616962
thorax -8.670391016834058 1.9693832846805108 -1.3121047099847924
lowerneck -8.608666842188272 -5.9486338698103225 -1.4679603789770423
upperneck -1.1797857483421925 -8.581311264213685 5.804266106747054
head 1.3072017647090188 -3.933639399894716 1.5268764253509737
rclavicle -7.685075587764472E-16 9.422656035791156E-16
rhumerus 36.5056015495498 -4.142836175076749 -29.198948658728895
rradius 150.5122607382628
rwrist -24.437835043842703
rhand -19.443390447070442 -31.059128691693118
rfingers 7.125019999999956
rthumb 6.899751061587633 -60.87666934385932
lclavicle -1.6158182581362264E-15 1.0775966793879818E-15
lhumerus -47.3851652435858 -6.169948269380681 79.776958615415
lradius 61.99764814460593
lwrist 10.824243127306197
lhand -14.56380399180406 -19.87218361991276
lfingers 7.125019999999867
lthumb 11.521553198029169 9.857985616590437
rfemur -0.2507463574816846 8.872270452274908 35.632139807922485
rtibia 27.059328564361092
rfoot -21.478482682140438 -7.922823181170711
rtoes 5.3485419916897765
lfemur -26.69858491733526 1.8043545605334974 -16.228420611508543
ltibia 48.487657622820976
lfoot -3.1812492521147746 -4.439344609035055
ltoes 6.759191973863572
394
root 0 0 0 -1.4813837691774094 -1.5610282631663237 -3.9813647896736315
lowerback 19.946544779122277 3.016497449911072 0.1267698517499214
upperback 2.2782575159638223 4.073875618602055 -0.5219169268159742
thorax -8.71597268182638 1.9609227821454147 -1.2939477967162376
lowerneck -8.58991508293238 -5.939337854545494 -1.4340664377300127
upperneck -1.25116556570406 -8.5605505956812 5.747402219323391
head 1.2884993033274288 -3.927004049957338 1.5051137469812486
rclavicle -5.979514887378183E-16 1.1055920940710083E-15
rhumerus 36.30184293312226 -4.57822464074518 -29.45210288555755
rradius 150.13912901362147
rwrist -23.884075981438052
rhand -19.59013717194302 -30.99023071285624
rfingers 7.125019999999958
rthumb 6.759979466729002 -60.8149914985545
lclavicle -1.4950660457845766E-15 1.1918516227183008E-15
lhumerus -47.381167516471976 -6.140849752297546 79.7164995584287
lradius 61.97781604372996
lwrist 10.850526641553405
lhand -14.603811644155405 -19.79611512474665
lfingers 7.125019999999865
lthumb 11.481622125515853 9.947645316594656
rfemur -1.0878296382743087 8.719719051639988 35.40279800879189
rtibia 28.11405261998958
rfoot -20.88830546486582 -7.9898992765323555
rtoes 4.922597417899341
lfemur -26.763050280395902 1.22891796648369 -17.090570286709397
ltibia 44.463520473321864
lfoot -3.0020284742236214 -4.148109870800062
ltoes 9.754821444478964
395
root 0 0 0 -1.4762878523517227 -1.5617970750945651 -3.9733903648934823
lowerback 20.04485741358227 3.0003530998850767 0.0927328915631479
upperback 2.282441421303082 4.050670668166323 -0.5074163890293499
thorax -8.766194449176018 1.9499933787614334 -1.2583592880760583
lowerneck -8.55527424483332 -5.934594940949765 -1.3965097794328785
upperneck -1.229560016408259 -8.547727583948168 5.688574799899886
head 1.3002420301384152 -3.923028557989241 1.4808440572623955
rclavicle -4.029946653909371E-16 1.1659177705313584E-15
rhumerus 36.011545109429925 -5.174026820559311 -29.771200200871498
rradius 149.48651164072297
rwrist -23.176148331033204
rhand -19.723866828046084 -30.904577943910336
rfingers 7.125019999999961
rthumb 6.632604689257729 -60.73558336337223
lclavicle -1.3344713759864693E-15 1.2187368475529692E-15
lhumerus -47.369592802721364 -6.11566731747977 79.66290467914853
lradius 61.95876154839013
lwrist 10.877698273391507
lhand -14.644239494770819 -19.722401966423597
lfingers 7.125019999999863
lthumb 11.440764571893377 10.036335009424642
rfemur -2.920703854810575 8.501803569752127 35.05145591035027
rtibia 29.84846125333405
rfoot -19.794394747471053 -8.098741056432928
rtoes 4.63012728463074
lfemur -25.841147216220797 0.7394826936915835 -17.78335368928779
ltibia 41.923601195835595
lfoot -2.3680742617164583 -4.419316753559385
ltoes 11.36596363537133
